<?xml version="1.0" encoding="UTF-8" ?>
<svg
  width="24px"
  height="24px"
  viewBox="0 0 24 24"
  version="1.1"
  xmlns="http://www.w3.org/2000/svg"
  xmlns:xlink="http://www.w3.org/1999/xlink"
>
    <!-- Generator: sketchtool 61 (101010) - https://sketch.com -->
    <title>070F2F1F-FE08-4A1E-96BE-720383A77199</title>
    <desc>Created with sketchtool.</desc>
    <defs>
        <filter
      x="-2.6%"
      y="-46.1%"
      width="105.1%"
      height="192.2%"
      filterUnits="objectBoundingBox"
      id="filter-1"
    >
            <feOffset
        dx="0"
        dy="1"
        in="SourceAlpha"
        result="shadowOffsetOuter1"
      />
            <feGaussianBlur
        stdDeviation="7"
        in="shadowOffsetOuter1"
        result="shadowBlurOuter1"
      />
            <feColorMatrix
        values="0 0 0 0 0.133333333   0 0 0 0 0.133333333   0 0 0 0 0.133333333  0 0 0 0.238499781 0"
        type="matrix"
        in="shadowBlurOuter1"
        result="shadowMatrixOuter1"
      />
            <feMerge>
                <feMergeNode in="shadowMatrixOuter1" />
                <feMergeNode in="SourceGraphic" />
            </feMerge>
        </filter>
    </defs>
    <g
    id="Desktop-Final"
    stroke="none"
    stroke-width="1"
    fill="none"
    fill-rule="evenodd"
  >
        <g
      id="exports-assats-scrubber"
      transform="translate(-74.000000, -709.000000)"
    >
            <rect fill="#FBFBFB" x="0" y="0" width="1200" height="766" />
            <g id="D" transform="translate(50.000000, 702.000000)">
                <polyline
          id="Shape"
          stroke="#E5E5E5"
          fill="#FFFFFF"
          points="0 0 1151 0 1151 64 0 64"
        />
                <g id="Pagination" filter="url(#filter-1)">
                    <g id="Group-4" />
                </g>
            </g>
            <g
        id="Disable"
        transform="translate(74.000000, 709.000000)"
        fill="#222222"
        fill-rule="nonzero"
        opacity="0.335890997"
      >
                <path
          d="M7.07634286,11.087028 L10.561082,7.55795656 C10.9131388,7.20186723 10.9131388,6.62407679 10.561082,6.26746148 C10.2095444,5.91084617 9.63913974,5.91084617 9.28708295,6.26746148 L4.26508111,11.3544895 C4.2227616,11.3973569 4.18511541,11.4444323 4.15240217,11.4938745 C4.13864183,11.5141248 4.12981445,11.536742 4.11709263,11.5572553 C4.10099564,11.5882882 4.08256199,11.6177431 4.06932092,11.6506169 C4.05815687,11.677705 4.05218541,11.705582 4.04439654,11.732407 C4.03530953,11.762388 4.02414549,11.7910539 4.01791439,11.8218238 C4.00856775,11.8681102 4.00467332,11.9157115 4.0036348,11.9627868 C4.0036348,11.9751474 4,11.986982 4,11.9996055 C4,12.01407 4.0036348,12.0269565 4.00415406,12.041421 C4.00597146,12.0869184 4.00908701,12.1321528 4.01791439,12.1773872 C4.02492437,12.210524 4.03582879,12.240242 4.04517543,12.2718008 C4.05218541,12.2975739 4.0584165,12.323347 4.06906129,12.3475421 C4.08360051,12.3833089 4.10255342,12.4164457 4.12098707,12.4490565 C4.1311126,12.4679918 4.13942072,12.4874532 4.15058476,12.5053365 C4.18459615,12.5560937 4.22198271,12.603695 4.26508111,12.6460365 L9.28578481,17.7325385 C9.46155357,17.9103202 9.6926233,18 9.92343339,18 C10.1539839,18 10.3837554,17.9105832 10.5603031,17.7325385 C10.9123599,17.3759232 10.9123599,16.7978698 10.5603031,16.4415175 L7.077641,12.912446 L14.5745348,12.912446 C16.5728985,12.912446 18.1973965,14.5587675 18.1973965,16.5822174 C18.1973965,17.0866335 18.6013791,17.495321 19.0990877,17.495321 C19.5970559,17.495321 20,17.0866335 20,16.5824804 C19.9997404,13.5528282 17.5662387,11.086765 14.5745348,11.087817 L7.07634286,11.087028 Z"
          id="Path"
        />
            </g>
        </g>
    </g>
</svg>
