<svg
  width="34"
  height="32"
  viewBox="0 0 34 32"
  fill="none"
  xmlns="http://www.w3.org/2000/svg"
>
<path
    fill-rule="evenodd"
    clip-rule="evenodd"
    d="M27.7005 9.83031H20.7472V5.37146C20.7449 3.94606 20.1769 2.57981 19.1682 1.57272C18.1595 0.565621 16.7925 0 15.3671 0H5.38032C3.95492 0 2.5877 0.565621 1.57898 1.57272C0.570251 2.57981 0.00230275 3.94606 0 5.37146V11.9337C0.000985976 13.0141 0.281747 14.0759 0.814847 15.0157C1.34795 15.9555 2.11522 16.7412 3.04209 17.2964V20.6515C3.04432 20.9167 3.15011 21.1705 3.33684 21.3589C3.52357 21.5473 3.77658 21.6552 4.04177 21.6597C4.20864 21.6586 4.37278 21.6168 4.51985 21.538L10.7691 18.183H12.3857V22.6332C12.3857 24.0601 12.9525 25.4286 13.9615 26.4375C14.9704 27.4465 16.3391 28.0133 17.766 28.0133H22.3465L28.5958 31.3683C28.7429 31.4472 28.907 31.4889 29.0739 31.49C29.3391 31.4855 29.5919 31.3776 29.7786 31.1892C29.9653 31.0009 30.0711 30.747 30.0734 30.4818V27.1268C31.0002 26.5716 31.7675 25.7858 32.3006 24.846C32.8337 23.9063 33.1145 22.8444 33.1154 21.764V15.2018C33.1143 14.493 32.9732 13.7915 32.7002 13.1375C32.4271 12.4835 32.0275 11.8898 31.5244 11.3907C31.0212 10.8916 30.4242 10.4968 29.768 10.229C29.1118 9.96119 28.4093 9.82573 27.7005 9.83031ZM10.4996 16.1839C10.334 16.1864 10.1708 16.2249 10.0216 16.2969L5.03253 18.9826V16.7054C5.02426 16.5211 4.96566 16.3427 4.86298 16.1894C4.7603 16.0361 4.61754 15.914 4.45025 15.8362C3.71386 15.495 3.09024 14.9506 2.65292 14.2669C2.2156 13.5832 1.98272 12.7887 1.98173 11.9771V5.37146C1.98403 4.47625 2.34121 3.61848 2.97504 2.98629C3.60886 2.35409 4.46771 1.99908 5.36292 1.99908H15.3149C16.2101 1.99908 17.0687 2.35409 17.7025 2.98629C18.3364 3.61848 18.6935 4.47625 18.6958 5.37146V12.8029C18.6958 13.6996 18.3398 14.5596 17.7057 15.1937C17.0717 15.8277 16.2116 16.1839 15.3149 16.1839H10.4996ZM31.0815 21.764C31.0805 22.5756 30.8476 23.37 30.4103 24.0537C29.973 24.7374 29.3496 25.2819 28.6132 25.6231C28.4394 25.7041 28.2922 25.833 28.189 25.9947C28.0859 26.1563 28.031 26.344 28.0307 26.5357V28.8129L23.0417 26.1272C22.894 26.0511 22.73 26.0123 22.5638 26.0142H17.7312C16.8345 26.0142 15.9744 25.658 15.3403 25.024C14.7063 24.3899 14.35 23.5299 14.35 22.6332V18.183H15.3149C16.7411 18.1807 18.1082 17.6132 19.1166 16.6047C20.1251 15.5962 20.6927 14.2291 20.695 12.8029V11.8294H27.6483C28.5435 11.8294 29.4022 12.1844 30.036 12.8166C30.6698 13.4488 31.0272 14.3066 31.0295 15.2018L31.0815 21.764ZM6.3102 7.80504H13.8721C14.0034 7.80504 14.1333 7.77919 14.2545 7.72896C14.3758 7.67873 14.486 7.60512 14.5788 7.51231C14.6716 7.41949 14.7452 7.30928 14.7954 7.18801C14.8457 7.06674 14.8716 6.93679 14.8716 6.80552C14.8716 6.67426 14.8457 6.54425 14.7954 6.42298C14.7452 6.30171 14.6716 6.19156 14.5788 6.09874C14.486 6.00592 14.3758 5.93226 14.2545 5.88203C14.1333 5.8318 14.0034 5.80596 13.8721 5.80596H6.3102C6.0451 5.80596 5.79102 5.91129 5.60357 6.09874C5.41612 6.28619 5.31074 6.54043 5.31074 6.80552C5.31074 7.07062 5.41612 7.32486 5.60357 7.51231C5.79102 7.69976 6.0451 7.80504 6.3102 7.80504ZM6.3102 9.83049H9.54348C9.67475 9.83049 9.80481 9.85633 9.92608 9.90656C10.0474 9.95679 10.1575 10.0304 10.2503 10.1232C10.3431 10.216 10.4167 10.3262 10.467 10.4475C10.5172 10.5688 10.5432 10.6988 10.5432 10.8301C10.5432 10.9613 10.5172 11.0913 10.467 11.2125C10.4167 11.3338 10.3431 11.444 10.2503 11.5368C10.1575 11.6297 10.0474 11.7033 9.92608 11.7535C9.80481 11.8037 9.67475 11.8296 9.54348 11.8296H6.3102C6.0451 11.8296 5.79102 11.7243 5.60357 11.5368C5.41612 11.3494 5.31074 11.0952 5.31074 10.8301C5.31074 10.565 5.41612 10.3107 5.60357 10.1232C5.79102 9.93577 6.0451 9.83049 6.3102 9.83049Z"
    fill="#EB7100"
  />
</svg>
